<?xml version="1.0" encoding="UTF-8" standalone="no"?>
<!-- Created with Inkscape (http://www.inkscape.org/) -->

<svg
   width="16.0px"
   height="16.0px"
   viewBox="0 0 16.0 16.0"
   version="1.1"
   id="SVGRoot"
   sodipodi:docname="geo.svg"
   inkscape:version="1.2.2 (b0a8486541, 2022-12-01)"
   xmlns:inkscape="http://www.inkscape.org/namespaces/inkscape"
   xmlns:sodipodi="http://sodipodi.sourceforge.net/DTD/sodipodi-0.dtd"
   xmlns="http://www.w3.org/2000/svg"
   xmlns:svg="http://www.w3.org/2000/svg">
  <sodipodi:namedview
     id="namedview3458"
     pagecolor="#505050"
     bordercolor="#eeeeee"
     borderopacity="1"
     inkscape:showpageshadow="0"
     inkscape:pageopacity="0"
     inkscape:pagecheckerboard="0"
     inkscape:deskcolor="#505050"
     inkscape:document-units="px"
     showgrid="true"
     inkscape:zoom="44.552925"
     inkscape:cx="4.8144987"
     inkscape:cy="6.2509925"
     inkscape:window-width="1920"
     inkscape:window-height="1009"
     inkscape:window-x="1920"
     inkscape:window-y="152"
     inkscape:window-maximized="1"
     inkscape:current-layer="layer1">
    <inkscape:grid
       type="xygrid"
       id="grid3581" />
  </sodipodi:namedview>
  <defs
     id="defs3453" />
  <g
     inkscape:label="Layer 1"
     inkscape:groupmode="layer"
     id="layer1">
    <path
       id="path2023"
       style="fill:#ffffff;fill-opacity:1;stroke:#000000;stroke-width:0.5;stroke-linecap:round;stroke-linejoin:round"
       d="M 8 1 A 6 6 0 0 0 2 7 A 6 6 0 0 0 3.9863281 11.451172 L 3.9765625 11.451172 L 4.0703125 11.535156 L 8 15.089844 L 11.929688 11.535156 L 12.023438 11.451172 L 12.013672 11.451172 A 6 6 0 0 0 14 7 A 6 6 0 0 0 8 1 z " />
    <path
       style="fill:#98827f;stroke:#000000;stroke-width:0.3;stroke-linecap:round;stroke-linejoin:round;fill-opacity:1;stroke-dasharray:none"
       d="M 12,8.5 9,3 6,8.5 Z"
       id="path244"
       sodipodi:nodetypes="cccc" />
    <path
       style="fill:#98827f;stroke:#000000;stroke-width:0.3;stroke-linecap:round;stroke-linejoin:round;fill-opacity:1;stroke-dasharray:none"
       d="m 4.5,8.5 2,-3 2,3 h -4"
       id="path242"
       sodipodi:nodetypes="cccc" />
    <path
       style="fill:#ffffff;stroke:#000000;stroke-width:0.3;stroke-linecap:round;stroke-linejoin:round;fill-opacity:1;stroke-dasharray:none"
       d="M 5.7752822,6.5870767 6,7 6.5,6.5870767 7,7 7.2247178,6.5870767 6.5,5.5 Z"
       id="path452"
       sodipodi:nodetypes="ccccccc" />
    <path
       style="fill:#ffffff;fill-opacity:1;stroke:#000000;stroke-width:0.3;stroke-linecap:round;stroke-linejoin:round;stroke-dasharray:none"
       d="M 8.2762421,4.3268894 8.5999913,4.7050122 9,4.3268894 9.4,4.7050122 9.7237579,4.3268894 9,3 Z"
       id="path1113"
       sodipodi:nodetypes="ccccccc" />
  </g>
</svg>
