<?xml version="1.0" encoding="UTF-8" standalone="no"?>
<!-- Created with Inkscape (http://www.inkscape.org/) -->

<svg
   width="16.0px"
   height="16.0px"
   viewBox="0 0 16.0 16.0"
   version="1.1"
   id="SVGRoot"
   sodipodi:docname="unknown_active.svg"
   inkscape:version="1.2.2 (b0a8486541, 2022-12-01)"
   xmlns:inkscape="http://www.inkscape.org/namespaces/inkscape"
   xmlns:sodipodi="http://sodipodi.sourceforge.net/DTD/sodipodi-0.dtd"
   xmlns="http://www.w3.org/2000/svg"
   xmlns:svg="http://www.w3.org/2000/svg">
  <sodipodi:namedview
     id="namedview3458"
     pagecolor="#505050"
     bordercolor="#eeeeee"
     borderopacity="1"
     inkscape:showpageshadow="0"
     inkscape:pageopacity="0"
     inkscape:pagecheckerboard="0"
     inkscape:deskcolor="#505050"
     inkscape:document-units="px"
     showgrid="true"
     inkscape:zoom="30.386665"
     inkscape:cx="1.4973673"
     inkscape:cy="13.048487"
     inkscape:window-width="1920"
     inkscape:window-height="1009"
     inkscape:window-x="1920"
     inkscape:window-y="152"
     inkscape:window-maximized="1"
     inkscape:current-layer="layer1">
    <inkscape:grid
       type="xygrid"
       id="grid3581" />
  </sodipodi:namedview>
  <defs
     id="defs3453" />
  <g
     inkscape:label="Layer 1"
     inkscape:groupmode="layer"
     id="layer1">
    <path
       id="path2023"
       style="fill:#ff604f;fill-opacity:1;stroke:#000000;stroke-width:0.5;stroke-linecap:round;stroke-linejoin:round"
       d="M 8 1 A 6 6 0 0 0 2 7 A 6 6 0 0 0 3.9863281 11.451172 L 3.9765625 11.451172 L 4.0703125 11.535156 L 8 15.089844 L 11.929688 11.535156 L 12.023438 11.451172 L 12.013672 11.451172 A 6 6 0 0 0 14 7 A 6 6 0 0 0 8 1 z " />
    <g
       aria-label="?"
       id="text9211"
       style="font-size:11.1352px;line-height:0;-inkscape-font-specification:sans-serif;fill:#6cc3ff;stroke:#000000;stroke-width:0.52607;stroke-linecap:round;stroke-linejoin:round">
      <path
         d="m 6.9644264,7.6303157 c 0,-0.3711733 0.077946,-0.6829589 0.2338392,-0.9353568 C 7.3541584,6.442561 7.6214032,6.179028 8,5.9043597 8.334056,5.6668088 8.5716069,5.4626635 8.7126528,5.2919238 8.8611221,5.1137606 8.9353567,4.9059035 8.9353567,4.6683526 8.9353567,4.4308017 8.8462751,4.2526385 8.668112,4.133863 8.4973723,4.0076641 8.2561096,3.9445646 7.944324,3.9445646 c -0.3117856,0 -0.6198595,0.048252 -0.9242216,0.1447576 C 6.7157403,4.1858273 6.4039547,4.3157379 6.0847457,4.4790542 5.4208825,4.8623358 5.0117739,3.5663361 5.4945801,3.2875878 5.85833,3.0871543 6.2517737,2.923838 6.6749112,2.7976391 c 0.4231376,-0.1261989 0.8871043,-0.1892984 1.3919,-0.1892984 0.7720405,0 1.3696295,0.1855866 1.7927671,0.5567599 0.4305607,0.3711733 0.6458417,0.8425635 0.6458417,1.4141704 0,0.3043621 -0.04825,0.5678952 -0.144758,0.7905992 C 10.264157,5.5925741 10.1194,5.8004312 9.9263895,5.9934413 9.7333794,6.179028 9.4921167,6.3794616 9.2026015,6.5947421 8.987321,6.7506349 8.820293,6.8842573 8.7015176,6.9956093 8.5827421,7.1069613 8.501084,7.2146016 8.4565432,7.3185301 8.4194259,7.4224586 8.4008672,7.5523693 8.4008672,7.7082621 v 0.3229208 c 0,0.7029067 -1.4364408,0.7279108 -1.4364408,0 z M 6.7862632,10.227262 c 0,-0.3414795 0.092793,-0.5790304 0.27838,-0.7126528 0.1855867,-0.1410459 0.4120024,-0.2115688 0.6792472,-0.2115688 0.2598213,0 0.4825253,0.070523 0.668112,0.2115688 0.1855867,0.1336224 0.27838,0.3711733 0.27838,0.7126528 0,0.326632 -0.092793,0.564183 -0.27838,0.712653 -0.1855867,0.141046 -0.4082907,0.211569 -0.668112,0.211569 -0.2672448,0 -0.4936605,-0.07052 -0.6792472,-0.211569 -0.1855867,-0.14847 -0.27838,-0.386021 -0.27838,-0.712653 z"
         style="font-weight:bold;-inkscape-font-specification:'sans-serif Bold'"
         id="path9626"
         sodipodi:nodetypes="ssccscssccsscssccscsccsscscscscs" />
    </g>
  </g>
</svg>
